<mxfile host="65bd71144e">
    <diagram id="zT0v7RBs0bj5I9ILCnPR" name="Страница 1">
        <mxGraphModel dx="1891" dy="1287" grid="0" gridSize="10" guides="1" tooltips="1" connect="1" arrows="1" fold="1" page="1" pageScale="1" pageWidth="15000" pageHeight="15000" background="#ffffff" math="0" shadow="0">
            <root>
                <mxCell id="0"/>
                <mxCell id="1" parent="0"/>
                <mxCell id="137" style="edgeStyle=none;html=1;exitX=1;exitY=1;exitDx=0;exitDy=0;exitPerimeter=0;entryX=0;entryY=0.5;entryDx=0;entryDy=0;strokeColor=#000000;strokeWidth=4;fontSize=22;fontColor=#000000;" edge="1" parent="1" source="130" target="132">
                    <mxGeometry relative="1" as="geometry"/>
                </mxCell>
                <mxCell id="138" style="edgeStyle=none;html=1;exitX=0.5;exitY=0.5;exitDx=0;exitDy=0;exitPerimeter=0;entryX=0;entryY=0.5;entryDx=0;entryDy=0;strokeColor=#000000;strokeWidth=4;fontSize=22;fontColor=#000000;" edge="1" parent="1" source="130" target="134">
                    <mxGeometry relative="1" as="geometry"/>
                </mxCell>
                <mxCell id="139" style="edgeStyle=none;html=1;entryX=0;entryY=0.5;entryDx=0;entryDy=0;strokeColor=#000000;strokeWidth=4;fontSize=22;fontColor=#000000;exitX=0.5;exitY=0.5;exitDx=0;exitDy=0;exitPerimeter=0;" edge="1" parent="1" source="130" target="135">
                    <mxGeometry relative="1" as="geometry"/>
                </mxCell>
                <mxCell id="140" style="edgeStyle=none;html=1;exitX=0.5;exitY=0.5;exitDx=0;exitDy=0;exitPerimeter=0;entryX=0;entryY=0.5;entryDx=0;entryDy=0;strokeColor=#000000;strokeWidth=4;fontSize=22;fontColor=#000000;" edge="1" parent="1" source="130" target="133">
                    <mxGeometry relative="1" as="geometry"/>
                </mxCell>
                <mxCell id="141" style="edgeStyle=none;html=1;exitX=0.5;exitY=0;exitDx=0;exitDy=0;exitPerimeter=0;strokeColor=#000000;strokeWidth=4;fontSize=22;fontColor=#000000;" edge="1" parent="1" source="130">
                    <mxGeometry relative="1" as="geometry">
                        <mxPoint x="342.4465462820872" y="309.0268293108261" as="targetPoint"/>
                    </mxGeometry>
                </mxCell>
                <mxCell id="130" value="Пользователь" style="shape=umlActor;verticalLabelPosition=bottom;verticalAlign=top;html=1;outlineConnect=0;strokeColor=#000000;strokeWidth=5;fontSize=22;fontColor=#000000;fillColor=#FFFFFF;" vertex="1" parent="1">
                    <mxGeometry x="116" y="534" width="30" height="60" as="geometry"/>
                </mxCell>
                <mxCell id="131" value="Просмотр общей информац&amp;nbsp;&amp;nbsp;" style="ellipse;whiteSpace=wrap;html=1;align=center;strokeColor=#000000;strokeWidth=5;fontSize=22;fontColor=#000000;fillColor=#FFFFFF;" vertex="1" parent="1">
                    <mxGeometry x="345" y="267" width="230" height="93" as="geometry"/>
                </mxCell>
                <mxCell id="132" value="Авторизация в системе" style="ellipse;whiteSpace=wrap;html=1;align=center;strokeColor=#000000;strokeWidth=5;fontSize=22;fontColor=#000000;fillColor=#FFFFFF;" vertex="1" parent="1">
                    <mxGeometry x="359" y="790" width="239" height="79" as="geometry"/>
                </mxCell>
                <mxCell id="133" value="Просмотр оперативных данных" style="ellipse;whiteSpace=wrap;html=1;align=center;strokeColor=#000000;strokeWidth=5;fontSize=22;fontColor=#000000;fillColor=#FFFFFF;" vertex="1" parent="1">
                    <mxGeometry x="349" y="389" width="241" height="93" as="geometry"/>
                </mxCell>
                <mxCell id="134" value="Настройка системы" style="ellipse;whiteSpace=wrap;html=1;align=center;strokeColor=#000000;strokeWidth=5;fontSize=22;fontColor=#000000;fillColor=#FFFFFF;" vertex="1" parent="1">
                    <mxGeometry x="353" y="646" width="237" height="95" as="geometry"/>
                </mxCell>
                <mxCell id="135" value="Просмотр карты объекта" style="ellipse;whiteSpace=wrap;html=1;align=center;strokeColor=#000000;strokeWidth=5;fontSize=22;fontColor=#000000;fillColor=#FFFFFF;" vertex="1" parent="1">
                    <mxGeometry x="351" y="516" width="241" height="90" as="geometry"/>
                </mxCell>
                <mxCell id="144" style="edgeStyle=none;html=1;exitX=0;exitY=0.5;exitDx=0;exitDy=0;entryX=0.989;entryY=0.386;entryDx=0;entryDy=0;entryPerimeter=0;strokeColor=#000000;strokeWidth=4;fontSize=22;fontColor=#000000;dashed=1;dashPattern=12 12;" edge="1" parent="1" source="142" target="135">
                    <mxGeometry relative="1" as="geometry"/>
                </mxCell>
                <mxCell id="142" value="Получение сигнала тревоги" style="ellipse;whiteSpace=wrap;html=1;align=center;strokeColor=#000000;strokeWidth=5;fontSize=22;fontColor=#000000;fillColor=#FFFFFF;" vertex="1" parent="1">
                    <mxGeometry x="869" y="375" width="260" height="109" as="geometry"/>
                </mxCell>
                <mxCell id="145" style="edgeStyle=none;html=1;exitX=0;exitY=0.5;exitDx=0;exitDy=0;entryX=1;entryY=0.5;entryDx=0;entryDy=0;strokeColor=#000000;strokeWidth=4;fontSize=22;fontColor=#000000;dashed=1;dashPattern=12 12;" edge="1" parent="1" source="143" target="135">
                    <mxGeometry relative="1" as="geometry"/>
                </mxCell>
                <mxCell id="143" value="Отключение тревоги" style="ellipse;whiteSpace=wrap;html=1;align=center;strokeColor=#000000;strokeWidth=5;fontSize=22;fontColor=#000000;fillColor=#FFFFFF;" vertex="1" parent="1">
                    <mxGeometry x="867" y="505" width="267" height="101" as="geometry"/>
                </mxCell>
                <mxCell id="146" value="&amp;lt;&amp;lt;extend&amp;gt;&amp;gt;" style="text;strokeColor=none;fillColor=none;html=1;fontSize=24;fontStyle=1;verticalAlign=middle;align=center;strokeWidth=5;fontColor=#000000;rotation=-25;" vertex="1" parent="1">
                    <mxGeometry x="666" y="450" width="100" height="40" as="geometry"/>
                </mxCell>
                <mxCell id="147" value="&amp;lt;&amp;lt;extend&amp;gt;&amp;gt;" style="text;strokeColor=none;fillColor=none;html=1;fontSize=24;fontStyle=1;verticalAlign=middle;align=center;strokeWidth=5;fontColor=#000000;" vertex="1" parent="1">
                    <mxGeometry x="692" y="566" width="100" height="40" as="geometry"/>
                </mxCell>
                <mxCell id="150" style="edgeStyle=none;html=1;exitX=0;exitY=0.5;exitDx=0;exitDy=0;entryX=1;entryY=0.5;entryDx=0;entryDy=0;dashed=1;dashPattern=12 12;strokeColor=#000000;strokeWidth=4;fontSize=22;fontColor=#000000;" edge="1" parent="1" source="148" target="134">
                    <mxGeometry relative="1" as="geometry"/>
                </mxCell>
                <mxCell id="148" value="Выбор способа уведомления" style="ellipse;whiteSpace=wrap;html=1;align=center;strokeColor=#000000;strokeWidth=5;fontSize=22;fontColor=#000000;fillColor=#FFFFFF;" vertex="1" parent="1">
                    <mxGeometry x="880" y="630" width="257" height="109" as="geometry"/>
                </mxCell>
                <mxCell id="151" style="edgeStyle=none;html=1;exitX=0;exitY=0.5;exitDx=0;exitDy=0;entryX=0.975;entryY=0.675;entryDx=0;entryDy=0;entryPerimeter=0;dashed=1;dashPattern=12 12;strokeColor=#000000;strokeWidth=4;fontSize=22;fontColor=#000000;" edge="1" parent="1" source="149" target="134">
                    <mxGeometry relative="1" as="geometry"/>
                </mxCell>
                <mxCell id="149" value="Изменение учетных данных" style="ellipse;whiteSpace=wrap;html=1;align=center;strokeColor=#000000;strokeWidth=5;fontSize=22;fontColor=#000000;fillColor=#FFFFFF;" vertex="1" parent="1">
                    <mxGeometry x="887" y="756" width="247" height="116" as="geometry"/>
                </mxCell>
                <mxCell id="152" value="&amp;lt;&amp;lt;extend&amp;gt;&amp;gt;" style="text;strokeColor=none;fillColor=none;html=1;fontSize=24;fontStyle=1;verticalAlign=middle;align=center;strokeWidth=5;fontColor=#000000;" vertex="1" parent="1">
                    <mxGeometry x="712" y="646" width="100" height="40" as="geometry"/>
                </mxCell>
                <mxCell id="153" value="&amp;lt;&amp;lt;extend&amp;gt;&amp;gt;" style="text;strokeColor=none;fillColor=none;html=1;fontSize=24;fontStyle=1;verticalAlign=middle;align=center;strokeWidth=5;fontColor=#000000;rotation=15;" vertex="1" parent="1">
                    <mxGeometry x="712" y="775" width="100" height="40" as="geometry"/>
                </mxCell>
            </root>
        </mxGraphModel>
    </diagram>
</mxfile>